<?xml version="1.0" encoding="UTF-8" standalone="no"?>
<!-- Created with Inkscape (http://www.inkscape.org/) -->

<svg
   xmlns:dc="http://purl.org/dc/elements/1.1/"
   xmlns:cc="http://creativecommons.org/ns#"
   xmlns:rdf="http://www.w3.org/1999/02/22-rdf-syntax-ns#"
   xmlns:svg="http://www.w3.org/2000/svg"
   xmlns="http://www.w3.org/2000/svg"
   xmlns:sodipodi="http://sodipodi.sourceforge.net/DTD/sodipodi-0.dtd"
   xmlns:inkscape="http://www.inkscape.org/namespaces/inkscape"
   width="250"
   height="250"
   viewBox="0 0 66.145832 66.145835"
   version="1.1"
   id="svg8"
   inkscape:version="0.92.2 (5c3e80d, 2017-08-06)"
   sodipodi:docname="braces.svg">
  <defs
     id="defs2" />
  <sodipodi:namedview
     id="base"
     pagecolor="#ffffff"
     bordercolor="#666666"
     borderopacity="1.0"
     inkscape:pageopacity="0.0"
     inkscape:pageshadow="2"
     inkscape:zoom="1.4"
     inkscape:cx="100.61637"
     inkscape:cy="17.123142"
     inkscape:document-units="mm"
     inkscape:current-layer="layer1"
     showgrid="false"
     units="px"
     inkscape:window-width="1920"
     inkscape:window-height="986"
     inkscape:window-x="-11"
     inkscape:window-y="-11"
     inkscape:window-maximized="1" />
  <metadata
     id="metadata5">
    <rdf:RDF>
      <cc:Work
         rdf:about="">
        <dc:format>image/svg+xml</dc:format>
        <dc:type
           rdf:resource="http://purl.org/dc/dcmitype/StillImage" />
        <dc:title></dc:title>
      </cc:Work>
    </rdf:RDF>
  </metadata>
  <g
     inkscape:label="Layer 1"
     inkscape:groupmode="layer"
     id="layer1"
     transform="translate(0,-230.85415)">
    <text
       xml:space="preserve"
       style="font-style:normal;font-weight:normal;font-size:22.57777778px;line-height:1.25;font-family:sans-serif;letter-spacing:0px;word-spacing:0px;fill:#000000;fill-opacity:1;stroke:none;stroke-width:0.26458332;"
       x="47.625"
       y="368.34821"
       id="text817"><tspan
         sodipodi:role="line"
         id="tspan815"
         x="47.625"
         y="377.71198"
         style="stroke-width:0.26458332;font-size:22.57777778px;" /></text>
    <g
       aria-label="{}"
       style="font-style:normal;font-weight:normal;font-size:22.57777786px;line-height:1.25;font-family:sans-serif;letter-spacing:0px;word-spacing:0px;fill:#000000;fill-opacity:1;stroke:none;stroke-width:0.26458332"
       id="text821"
       transform="matrix(2,0,0,2,-12.273299,-256.68943)">
      <path
         d="m 19.788825,269.8743 v 1.78594 H 19.01988 q -3.088183,0 -4.142383,-0.91778 -1.041796,-0.91777 -1.041796,-3.65869 v -2.96416 q 0,-1.87275 -0.669727,-2.59209 -0.669727,-0.71934 -2.430859,-0.71934 H 9.9785717 v -1.77353 h 0.7565433 q 1.773535,0 2.430859,-0.70693 0.669727,-0.71934 0.669727,-2.56729 v -2.97656 q 0,-2.74092 1.041796,-3.64629 1.0542,-0.91777 4.142383,-0.91777 h 0.768945 v 1.77353 h -0.843359 q -1.74873,0 -2.282031,0.5457 -0.533301,0.54571 -0.533301,2.29444 v 3.07578 q 0,1.94717 -0.570508,2.82773 -0.558105,0.88057 -1.922363,1.19063 1.37666,0.33486 1.934766,1.21543 0.558105,0.88056 0.558105,2.81533 v 3.07578 q 0,1.74873 0.533301,2.29443 0.533301,0.54571 2.282031,0.54571 z"
         style="font-size:25.39999962px;stroke-width:0.26458332"
         id="path823"
         inkscape:connector-curvature="0" />
      <path
         d="m 26.151227,269.8743 h 0.868164 q 1.736328,0 2.257226,-0.5333 0.533301,-0.5333 0.533301,-2.30684 v -3.07578 q 0,-1.93477 0.558106,-2.81533 0.558105,-0.88057 1.934765,-1.21543 -1.37666,-0.31006 -1.934765,-1.19063 -0.558106,-0.88056 -0.558106,-2.82773 v -3.07578 q 0,-1.76113 -0.533301,-2.29444 -0.520898,-0.5457 -2.257226,-0.5457 h -0.868164 v -1.77353 h 0.781347 q 3.088184,0 4.117578,0.91777 1.041797,0.90537 1.041797,3.64629 v 2.97656 q 0,1.84795 0.669727,2.56729 0.669726,0.70693 2.430859,0.70693 h 0.768946 v 1.77353 h -0.768946 q -1.761133,0 -2.430859,0.71934 -0.669727,0.71934 -0.669727,2.59209 v 2.96416 q 0,2.74092 -1.041797,3.65869 -1.029394,0.91778 -4.117578,0.91778 h -0.781347 z"
         style="font-size:25.39999962px;stroke-width:0.26458332"
         id="path825"
         inkscape:connector-curvature="0" />
    </g>
  </g>
</svg>
